# xmcd CD database file
#
# Track frame offsets:
#	150
#	22919
#	37178
#	53993
#	78587
#	104008
#	117829
#	135785
#	152426
#	166919
#	182698
#	206776
#	223495
#	242201
#	261638
#
# Disc length: 3781 seconds
#
# Revision: 0
# Processed by: cddbd v1.5.1PL0 Copyright (c) Steve Scherf et al.
# Submitted via: CDex 1.51
#
DISCID=da0ec30f
DTITLE=Les Deux Guitares Trio - Sjamswing Vol. 1
DYEAR=2004
DGENRE=Jazz
TTITLE0=Artillerie Lourde
TTITLE1=Daphne
TTITLE2=Djangology
TTITLE3=Oriental Shuffle
TTITLE4=Anouman
TTITLE5=Appel Indirect
TTITLE6=Blues For Ike
TTITLE7=J'attendrai
TTITLE8=Minor Swing
TTITLE9=Montagne Saint-Geneviève
TTITLE10=Nuages
TTITLE11=Swing 42
TTITLE12=Swing Gitan
TTITLE13=Troublant Bolero
TTITLE14=When Day Is Done
EXTD=YEAR: 2004
EXTT0=
EXTT1=
EXTT2=
EXTT3=
EXTT4=
EXTT5=
EXTT6=
EXTT7=
EXTT8=
EXTT9=
EXTT10=
EXTT11=
EXTT12=
EXTT13=
EXTT14=
PLAYORDER=
